<mxfile host="app.diagrams.net" modified="2020-05-03T17:56:01.475Z" agent="5.0 (Windows NT 10.0; Win64; x64) AppleWebKit/537.36 (KHTML, like Gecko) Chrome/81.0.4044.129 Safari/537.36" etag="LZtNYrTiI6SItXsUUuI5" version="13.0.6" type="github">
  <diagram id="tZ9og-Sx9goaFTl-BRWi" name="Page-1">
    <mxGraphModel dx="5540" dy="2760" grid="1" gridSize="10" guides="1" tooltips="1" connect="1" arrows="1" fold="1" page="1" pageScale="1" pageWidth="4681" pageHeight="3300" math="0" shadow="0">
      <root>
        <mxCell id="0" />
        <mxCell id="1" parent="0" />
      </root>
    </mxGraphModel>
  </diagram>
</mxfile>
